<mxfile host="app.diagrams.net" modified="2020-12-16T08:45:11.969Z" agent="5.0 (Windows NT 10.0; Win64; x64) AppleWebKit/537.36 (KHTML, like Gecko) Chrome/87.0.4280.88 Safari/537.36" etag="UomtWOOlMVDViaCGl3Oq" version="14.0.0" type="github">
  <diagram name="Page-1" id="e7e014a7-5840-1c2e-5031-d8a46d1fe8dd">
    <mxGraphModel dx="1038" dy="580" grid="1" gridSize="10" guides="1" tooltips="1" connect="1" arrows="1" fold="1" page="1" pageScale="1" pageWidth="1169" pageHeight="826" background="#ffffff" math="0" shadow="0">
      <root>
        <mxCell id="0" />
        <mxCell id="1" parent="0" />
        <mxCell id="3NbRo6IhD0EB3TJsJTpw-41" value="" style="ellipse;fillColor=#000000;strokeColor=none;" parent="1" vertex="1">
          <mxGeometry x="520" y="28" width="50" height="50" as="geometry" />
        </mxCell>
        <mxCell id="3NbRo6IhD0EB3TJsJTpw-42" value="وارد کردن نام کاربری و رمز عبور" style="shape=rect;html=1;rounded=1;whiteSpace=wrap;align=center;fontSize=21;fontStyle=1" parent="1" vertex="1">
          <mxGeometry x="455" y="138" width="180" height="80" as="geometry" />
        </mxCell>
        <mxCell id="3NbRo6IhD0EB3TJsJTpw-43" value="" style="endArrow=open;endFill=1;endSize=12;html=1;fontSize=21;exitX=0.5;exitY=1;exitDx=0;exitDy=0;entryX=0.5;entryY=0;entryDx=0;entryDy=0;" parent="1" source="3NbRo6IhD0EB3TJsJTpw-41" target="3NbRo6IhD0EB3TJsJTpw-42" edge="1">
          <mxGeometry width="160" relative="1" as="geometry">
            <mxPoint x="570" y="278" as="sourcePoint" />
            <mxPoint x="730" y="278" as="targetPoint" />
          </mxGeometry>
        </mxCell>
        <mxCell id="3NbRo6IhD0EB3TJsJTpw-45" value="بررسی صحت نام کاربری و رمز عبور" style="shape=rect;html=1;rounded=1;whiteSpace=wrap;align=center;fontSize=21;fontStyle=1" parent="1" vertex="1">
          <mxGeometry x="455" y="278" width="180" height="80" as="geometry" />
        </mxCell>
        <mxCell id="3NbRo6IhD0EB3TJsJTpw-46" value="" style="endArrow=open;endFill=1;endSize=12;html=1;fontSize=21;exitX=0.5;exitY=1;exitDx=0;exitDy=0;entryX=0.5;entryY=0;entryDx=0;entryDy=0;" parent="1" source="3NbRo6IhD0EB3TJsJTpw-42" target="3NbRo6IhD0EB3TJsJTpw-45" edge="1">
          <mxGeometry width="160" relative="1" as="geometry">
            <mxPoint x="544.5" y="228" as="sourcePoint" />
            <mxPoint x="544.5" y="288" as="targetPoint" />
          </mxGeometry>
        </mxCell>
        <mxCell id="3NbRo6IhD0EB3TJsJTpw-47" value="" style="rhombus;fontSize=21;" parent="1" vertex="1">
          <mxGeometry x="520" y="428" width="50" height="50" as="geometry" />
        </mxCell>
        <mxCell id="3NbRo6IhD0EB3TJsJTpw-48" value="" style="endArrow=open;endFill=1;endSize=12;html=1;fontSize=21;exitX=0.5;exitY=1;exitDx=0;exitDy=0;entryX=0.5;entryY=0;entryDx=0;entryDy=0;" parent="1" source="3NbRo6IhD0EB3TJsJTpw-45" target="3NbRo6IhD0EB3TJsJTpw-47" edge="1">
          <mxGeometry width="160" relative="1" as="geometry">
            <mxPoint x="584" y="378" as="sourcePoint" />
            <mxPoint x="584" y="438" as="targetPoint" />
          </mxGeometry>
        </mxCell>
        <mxCell id="3NbRo6IhD0EB3TJsJTpw-51" value="" style="endArrow=open;endFill=1;endSize=12;html=1;fontSize=21;exitX=0;exitY=0.5;exitDx=0;exitDy=0;entryX=0;entryY=0.5;entryDx=0;entryDy=0;" parent="1" source="3NbRo6IhD0EB3TJsJTpw-47" target="3NbRo6IhD0EB3TJsJTpw-42" edge="1">
          <mxGeometry width="160" relative="1" as="geometry">
            <mxPoint x="240" y="368" as="sourcePoint" />
            <mxPoint x="290" y="318" as="targetPoint" />
            <Array as="points">
              <mxPoint x="270" y="453" />
              <mxPoint x="270" y="178" />
            </Array>
          </mxGeometry>
        </mxCell>
        <mxCell id="3NbRo6IhD0EB3TJsJTpw-52" value="[نامعتبر]" style="edgeLabel;html=1;align=center;verticalAlign=middle;resizable=0;points=[];fontSize=21;" parent="3NbRo6IhD0EB3TJsJTpw-51" vertex="1" connectable="0">
          <mxGeometry x="0.1201" y="-2" relative="1" as="geometry">
            <mxPoint x="-1" as="offset" />
          </mxGeometry>
        </mxCell>
        <mxCell id="3NbRo6IhD0EB3TJsJTpw-53" value="" style="endArrow=open;endFill=1;endSize=12;html=1;fontSize=21;exitX=0.5;exitY=1;exitDx=0;exitDy=0;entryX=0.5;entryY=0;entryDx=0;entryDy=0;" parent="1" source="3NbRo6IhD0EB3TJsJTpw-47" target="3NbRo6IhD0EB3TJsJTpw-56" edge="1">
          <mxGeometry width="160" relative="1" as="geometry">
            <mxPoint x="545" y="498" as="sourcePoint" />
            <mxPoint x="545" y="548" as="targetPoint" />
          </mxGeometry>
        </mxCell>
        <mxCell id="3NbRo6IhD0EB3TJsJTpw-54" value="[معتبر]" style="edgeLabel;html=1;align=center;verticalAlign=middle;resizable=0;points=[];fontSize=21;" parent="3NbRo6IhD0EB3TJsJTpw-53" vertex="1" connectable="0">
          <mxGeometry x="-0.4" relative="1" as="geometry">
            <mxPoint as="offset" />
          </mxGeometry>
        </mxCell>
        <mxCell id="3NbRo6IhD0EB3TJsJTpw-56" value="ورود موفق" style="shape=rect;html=1;rounded=1;whiteSpace=wrap;align=center;fontSize=21;fontStyle=1" parent="1" vertex="1">
          <mxGeometry x="460" y="558" width="175" height="50" as="geometry" />
        </mxCell>
        <mxCell id="3NbRo6IhD0EB3TJsJTpw-57" value="" style="endArrow=open;endFill=1;endSize=12;html=1;fontSize=21;exitX=0.5;exitY=1;exitDx=0;exitDy=0;entryX=0.5;entryY=0;entryDx=0;entryDy=0;" parent="1" source="3NbRo6IhD0EB3TJsJTpw-56" target="3NbRo6IhD0EB3TJsJTpw-58" edge="1">
          <mxGeometry width="160" relative="1" as="geometry">
            <mxPoint x="560" y="638" as="sourcePoint" />
            <mxPoint x="720" y="638" as="targetPoint" />
          </mxGeometry>
        </mxCell>
        <mxCell id="3NbRo6IhD0EB3TJsJTpw-58" value="ورود به صفحه کاربر" style="shape=rect;html=1;rounded=1;whiteSpace=wrap;align=center;fontSize=21;fontStyle=1" parent="1" vertex="1">
          <mxGeometry x="460" y="658" width="175" height="50" as="geometry" />
        </mxCell>
        <mxCell id="3NbRo6IhD0EB3TJsJTpw-59" value="" style="endArrow=open;endFill=1;endSize=12;html=1;fontSize=21;exitX=0.5;exitY=1;exitDx=0;exitDy=0;entryX=0.5;entryY=0;entryDx=0;entryDy=0;" parent="1" source="3NbRo6IhD0EB3TJsJTpw-58" target="MCC8LFVl7NDf7MXcgSdg-1" edge="1">
          <mxGeometry width="160" relative="1" as="geometry">
            <mxPoint x="760" y="710" as="sourcePoint" />
            <mxPoint x="547.5" y="760" as="targetPoint" />
            <Array as="points" />
          </mxGeometry>
        </mxCell>
        <mxCell id="VrYUOEoZLdrW00XqA_Ht-1" value="&lt;font style=&quot;font-size: 30px&quot;&gt;login&lt;/font&gt;" style="text;html=1;strokeColor=none;fillColor=none;align=center;verticalAlign=middle;whiteSpace=wrap;rounded=0;" parent="1" vertex="1">
          <mxGeometry x="10" y="10" width="180" height="80" as="geometry" />
        </mxCell>
        <mxCell id="MCC8LFVl7NDf7MXcgSdg-1" value="" style="ellipse;html=1;shape=endState;fillColor=#000000;strokeColor=#000000;" vertex="1" parent="1">
          <mxGeometry x="522.5" y="758" width="50" height="50" as="geometry" />
        </mxCell>
      </root>
    </mxGraphModel>
  </diagram>
</mxfile>
